<svg xmlns="http://www.w3.org/2000/svg" width="40" height="40" viewBox="0 0 40 40">
  <g fill="none" fill-rule="evenodd">
    <path fill="#344597" fill-opacity=".995" d="M20,40 C31.045695,40 40,31.045695 40,20 C40,8.954305 31.045695,0 20,0 C8.954305,0 0,8.954305 0,20 C0,31.045695 8.954305,40 20,40 Z"/>
    <path fill="#FFFFFF" fill-rule="nonzero" d="M23.9589744,11.9846154 C23.9589744,8.78461538 22.7128205,5.77435897 20.4512821,3.51282051 C18.1897436,1.25128205 15.1794872,0.00512820513 11.9794872,0.00512820513 C8.77948718,0.00512820513 5.76923077,1.25128205 3.50769231,3.51282051 C1.24615385,5.77435897 0,8.78461538 0,11.9846154 L0,17.6564103 C0,20.8615385 2.61025641,23.4717949 5.81538462,23.4717949 C6.2,23.4717949 6.50769231,23.1641026 6.50769231,22.7794872 L6.50769231,12.5384615 C6.50769231,12.1538462 6.2,11.8461538 5.81538462,11.8461538 C4.04102564,11.8461538 2.45128205,12.6410256 1.38461538,13.8974359 L1.38461538,11.9846154 C1.38461538,6.14358974 6.13846154,1.38974359 11.9794872,1.38974359 C17.8205128,1.38974359 22.574359,6.14358974 22.574359,11.9846154 C22.574359,12.0307692 22.5794872,12.0769231 22.5897436,12.1230769 C22.5794872,12.1692308 22.574359,12.2153846 22.574359,12.2615385 L22.574359,14.174359 C21.5076923,12.9179487 19.9179487,12.1230769 18.1435897,12.1230769 C17.7589744,12.1230769 17.4512821,12.4307692 17.4512821,12.8153846 L17.4512821,23.0564103 C17.4512821,23.4410256 17.7589744,23.7487179 18.1435897,23.7487179 C21.3487179,23.7487179 23.9589744,21.1384615 23.9589744,17.9333333 L23.9589744,12.2615385 C23.9589744,12.2153846 23.9538462,12.1692308 23.9435897,12.1230769 C23.9538462,12.0769231 23.9589744,12.0307692 23.9589744,11.9846154 Z M5.11794872,13.2820513 L5.11794872,22.0307692 C3.00512821,21.6974359 1.37948718,19.8615385 1.37948718,17.6564103 C1.38461538,15.4512821 3.00512821,13.6153846 5.11794872,13.2820513 Z M18.8410256,22.3076923 L18.8410256,13.5589744 C20.9538462,13.8923077 22.5794872,15.7282051 22.5794872,17.9333333 C22.574359,20.1435897 20.9538462,21.974359 18.8410256,22.3076923 Z" transform="translate(8 8)"/>
  </g>
</svg>
